<?xml version="1.0" encoding="UTF-8"?> <svg xmlns="http://www.w3.org/2000/svg" width="31" height="30" viewBox="0 0 31 30" fill="none"> <path d="M6.256 20.024C7.504 20.216 8.512 20.792 9.28 21.752C10.048 22.616 10.432 23.624 10.432 24.776C10.432 26.12 9.952 27.272 8.992 28.232C8.128 29.096 7.024 29.528 5.68 29.528C4.336 29.528 3.184 29.048 2.224 28.088C1.36 27.128 0.928 26.024 0.928 24.776C0.928 23.432 1.216 21.704 1.792 19.592L6.976 0.151994H10.576L6.256 20.024ZM26.416 20.024C27.664 20.216 28.672 20.792 29.44 21.752C30.208 22.616 30.592 23.624 30.592 24.776C30.592 26.12 30.112 27.272 29.152 28.232C28.288 29.096 27.184 29.528 25.84 29.528C24.496 29.528 23.344 29.048 22.384 28.088C21.52 27.128 21.088 26.024 21.088 24.776C21.088 23.432 21.376 21.704 21.952 19.592L27.136 0.151994H30.736L26.416 20.024Z" fill="#464646"></path> </svg> 